<svg xmlns="http://www.w3.org/2000/svg" version="1.1" xmlns:xlink="http://www.w3.org/1999/xlink" xmlns:svgjs="http://svgjs.dev/svgjs" width="1500" height="1500" viewBox="0 0 1500 1500"><rect width="1500" height="1500" fill="#000000"></rect><g transform="matrix(0.6666666666666666,0,0,0.6666666666666666,249.39393939393938,438.5856950067477)"><svg viewBox="0 0 396 247" data-background-color="#4b91f1" preserveAspectRatio="xMidYMid meet" height="935" width="1500" xmlns="http://www.w3.org/2000/svg" xmlns:xlink="http://www.w3.org/1999/xlink"><g id="tight-bounds" transform="matrix(1,0,0,1,0.2400000000000091,-0.09999999999999432)"><svg viewBox="0 0 395.52 247.2" height="247.2" width="395.52"><g><svg></svg></g><g><svg viewBox="0 0 395.52 247.2" height="247.2" width="395.52"><g transform="matrix(1,0,0,1,75.54432,94.04963178472497)"><svg viewBox="0 0 244.43135999999998 59.10073643055006" height="59.10073643055006" width="244.43135999999998"><g><svg viewBox="0 0 244.43135999999998 59.10073643055006" height="59.10073643055006" width="244.43135999999998"><g><svg viewBox="0 0 244.43135999999998 59.10073643055006" height="59.10073643055006" width="244.43135999999998"><g><svg viewBox="0 0 244.43135999999998 59.10073643055006" height="59.10073643055006" width="244.43135999999998"><g id="textblocktransform"><svg viewBox="0 0 244.43135999999998 59.10073643055006" height="59.10073643055006" width="244.43135999999998" id="textblock"><g><svg viewBox="0 0 244.43135999999998 59.10073643055006" height="59.10073643055006" width="244.43135999999998"><g transform="matrix(1,0,0,1,0,0)"><svg width="244.43135999999998" viewBox="1.95 -29.3 123.38000000000001 29.84" height="59.10073643055006" data-palette-color="#ffffff"><path d="M23.73-20.51L24.71-20.51 24.46-29.3 1.95-29.3 1.95-28.03 5.86-28.03 5.86-1.27 1.95-1.27 1.95 0 24.46 0 24.71-8.79 23.73-8.79 23.05-6.49Q21.83-2.34 19.43-1.51L19.43-1.51Q18.7-1.27 17.87-1.27L17.87-1.27 10.06-1.27 10.06-14.4 20.12-14.4 20.12-15.82 10.06-15.82 10.06-28.03 17.87-28.03Q21.39-28.03 22.9-23.29L22.9-23.29Q23-23 23.05-22.8L23.05-22.8 23.73-20.51ZM38.13-1.22L38.13-1.22 35.94-1.22 35.94-11.77Q36.08-16.06 38.91-18.16L38.91-18.16Q40.23-19.14 41.55-19.14L41.55-19.14Q43.99-19.14 44.92-16.46L44.92-16.46Q45.31-15.28 45.31-13.82L45.31-13.82 45.31-4.15Q45.31-1.9 44.24-1.46L44.24-1.46Q43.55-1.22 41.89-1.22L41.89-1.22 41.89 0 52.39 0Q52.39-1.07 51.66-1.17L51.66-1.17Q51.46-1.22 51.17-1.22L51.17-1.22 48.97-1.22 48.97-13.33 48.97-13.72Q49.75-17.29 52.44-18.7L52.44-18.7Q53.46-19.19 54.39-19.19L54.39-19.19Q56.88-19.19 57.91-16.6L57.91-16.6Q58.4-15.38 58.4-13.82L58.4-13.82 58.4-4.15Q58.4-1.9 57.32-1.46L57.32-1.46Q56.64-1.22 54.98-1.22L54.98-1.22 54.98 0 65.77 0Q65.77-1.07 65.04-1.17L65.04-1.17Q64.84-1.22 64.55-1.22L64.55-1.22 62.06-1.22 62.06-13.33Q62.06-18.36 58.79-20.36L58.79-20.36Q57.32-21.24 55.61-21.24L55.61-21.24Q51.9-21.24 49.66-17.77L49.66-17.77Q49.07-16.89 48.68-15.92L48.68-15.92Q47.8-19.78 44.82-20.9L44.82-20.9Q43.94-21.24 43.02-21.24L43.02-21.24Q39.5-21.24 37.2-18.26L37.2-18.26Q36.37-17.19 35.89-15.87L35.89-15.87 35.69-20.75 28.61-20.75 28.61-19.53 32.27-19.53 32.27-4.15Q32.27-1.9 31-1.46L31-1.46Q30.27-1.22 28.61-1.22L28.61-1.22 28.61 0 39.35 0Q39.35-1.03 38.62-1.17L38.62-1.17Q38.38-1.22 38.13-1.22ZM86.08 0.49L86.08 0.49Q89.84 0.49 90.23-4.05L90.23-4.05Q90.28-4.35 90.28-4.59L90.28-4.59 89.01-4.64Q88.67-1.07 87.1-1.03L87.1-1.03Q85.83-1.12 85.79-3.56L85.79-3.56 85.79-13.87Q85.79-20.85 78.8-21.24L78.8-21.24Q78.36-21.24 77.92-21.24L77.92-21.24Q72.46-21.24 70.6-18.7L70.6-18.7Q70.01-17.87 70.01-17.04L70.01-17.04Q70.01-15.53 71.43-15.28L71.43-15.28Q71.67-15.23 71.92-15.23L71.92-15.23Q73.04-15.23 73.58-16.65L73.58-16.65Q74.26-18.46 74.51-18.8L74.51-18.8Q75.43-20.02 77.39-20.02L77.39-20.02Q81.98-19.73 82.12-14.99L82.12-14.99 82.12-11.91Q70.65-11.91 68.99-7.13L68.99-7.13Q68.7-6.2 68.7-5.13L68.7-5.13Q68.7-1.42 71.97-0.05L71.97-0.05Q73.29 0.49 74.75 0.49L74.75 0.49Q78.32 0.49 80.76-1.95L80.76-1.95Q81.64-2.88 82.08-3.91L82.08-3.91Q82.66 0.44 86.08 0.49ZM76.36-1.46L76.36-1.46Q73.38-1.46 72.7-4.44L72.7-4.44Q72.55-5.13 72.55-5.96L72.55-5.96Q72.55-9.23 76.31-10.11L76.31-10.11Q78.32-10.55 82.12-10.6L82.12-10.6 82.12-6.69Q81.39-3.32 78.56-1.95L78.56-1.95Q77.44-1.46 76.36-1.46ZM102.92-1.22L102.92-1.22 99.41-1.22 99.41-10.94Q99.41-15.38 102.14-18.07L102.14-18.07Q103.22-19.09 103.95-19.14L103.95-19.14Q104.78-19.14 105.46-17.92L105.46-17.92Q106.24-16.55 106.93-16.36L106.93-16.36Q107.22-16.26 107.51-16.26L107.51-16.26Q108.98-16.26 109.37-17.68L109.37-17.68Q109.47-17.97 109.47-18.26L109.47-18.26Q109.47-20.46 107.22-20.95L107.22-20.95Q106.73-21.04 106.29-21.04L106.29-21.04Q103.36-21.04 101.07-18.55L101.07-18.55Q99.99-17.38 99.36-15.92L99.36-15.92 99.16-20.75 92.08-20.75 92.08-19.53 95.74-19.53 95.74-4.15Q95.74-1.9 94.47-1.46L94.47-1.46Q93.74-1.22 92.08-1.22L92.08-1.22 92.08 0 104.14 0Q104.14-1.07 103.41-1.17L103.41-1.17Q103.22-1.22 102.92-1.22ZM110.68-20.75L110.68-19.53 114.1-19.53 114.1-5.76Q114.44 0.34 119.72 0.54L119.72 0.54Q124.21 0.54 125.33-4.98L125.33-4.98Q125.33-5.03 125.33-5.08L125.33-5.08 124.01-5.32Q122.79-1.27 120.45-0.93L120.45-0.93Q117.81-1.03 117.76-4.69L117.76-4.69 117.76-19.53 125.33-19.53 125.33-20.75 117.76-20.75 117.76-26.42 114.1-25.39 114.1-20.75 110.68-20.75Z" opacity="1" transform="matrix(1,0,0,1,0,0)" fill="#ffffff" class="wordmark-text-0" data-fill-palette-color="primary" id="text-0"></path></svg></g></svg></g></svg></g></svg></g></svg></g></svg></g></svg></g><g><path d="M245.816 0c68.262 0 123.6 55.338 123.6 123.6 0 68.262-55.338 123.6-123.6 123.6-55.547 0-102.536-36.642-118.114-87.073l2.793-0.001c15.486 48.938 61.261 84.409 115.321 84.409 66.791 0 120.935-54.145 120.935-120.935 0-66.791-54.145-120.935-120.935-120.935-54.06 0-99.835 35.471-115.321 84.409l-2.793-0.001c15.578-50.431 62.567-87.073 118.114-87.073z" fill="#ffffff" stroke="transparent" data-fill-palette-color="tertiary"></path></g></svg></g><defs></defs></svg><rect width="395.52" height="247.2" fill="none" stroke="none" visibility="hidden"></rect></g></svg></g></svg>